<?xml version="1.0" encoding="utf-8"?>
<!-- Svg Vector Icons : http://www.onlinewebfonts.com/icon -->
<!DOCTYPE svg PUBLIC "-//W3C//DTD SVG 1.1//EN" "http://www.w3.org/Graphics/SVG/1.1/DTD/svg11.dtd">
<svg version="1.1" xmlns="http://www.w3.org/2000/svg" xmlns:xlink="http://www.w3.org/1999/xlink" x="0px" y="0px" viewBox="0 0 1000 1000" enable-background="new 0 0 1000 1000" xml:space="preserve">
<metadata> Svg Vector Icons : http://www.onlinewebfonts.com/icon </metadata>
<g><path d="M500,10C229.4,10,10,229.4,10,500s219.4,490,490,490s490-219.4,490-490S770.6,10,500,10L500,10z M69.4,500C69.4,262.2,262.2,69.4,500,69.4c103.1,0,197.9,36.3,272,96.8c11.3,9.2,22,18.9,32.3,29.1L181.5,789.8c-1.1-1.2-2.2-2.4-3.2-3.6C110.5,710.2,69.4,609.9,69.4,500L69.4,500z M500,930.6c-103.7,0-198.8-36.6-273.1-97.7l618.4-590.3c53.6,71.8,85.3,160.9,85.3,257.4C930.6,737.8,737.8,930.6,500,930.6L500,930.6z"/></g>
</svg>